<?xml version="1.0" standalone="no"?>
<!DOCTYPE svg PUBLIC "-//W3C//DTD SVG 20010904//EN"
 "http://www.w3.org/TR/2001/REC-SVG-20010904/DTD/svg10.dtd">
<svg version="1.0" xmlns="http://www.w3.org/2000/svg"
 width="512.000000pt" height="512.000000pt" viewBox="0 0 512.000000 512.000000"
 preserveAspectRatio="xMidYMid meet">

<g transform="translate(0.000000,512.000000) scale(0.100000,-0.100000)"
fill="#000000" stroke="none">
<path d="M2565 4899 c-68 -10 -126 -32 -199 -76 -139 -84 -237 -170 -262 -229
-13 -31 -13 -38 2 -63 17 -29 49 -52 99 -71 27 -10 27 -10 23 26 -5 41 12 57
102 92 211 83 455 73 642 -25 67 -35 72 -41 68 -76 -1 -17 1 -17 38 2 44 23
82 64 82 91 0 48 -136 171 -293 264 -97 57 -203 80 -302 65z m118 -71 c32 -17
46 -39 47 -75 0 -45 -9 -62 -41 -78 -40 -21 -63 -19 -98 11 -42 35 -43 84 -2
125 31 31 59 36 94 17z"/>
<path d="M2612 4792 c-29 -26 -29 -28 -16 -55 8 -15 13 -31 10 -35 -2 -4 15
-7 37 -7 39 0 43 2 53 35 13 41 12 43 -25 69 l-28 20 -31 -27z"/>
<path d="M2615 4610 c-9 -15 4 -30 26 -30 12 0 19 7 19 20 0 21 -33 29 -45 10z"/>
<path d="M2686 4612 c-13 -12 -5 -32 13 -32 26 0 35 27 11 33 -10 3 -21 2 -24
-1z"/>
<path d="M2493 4595 c-3 -9 -3 -18 -1 -21 9 -9 38 8 38 22 0 19 -29 18 -37 -1z"/>
<path d="M2550 4595 c0 -8 9 -15 20 -15 11 0 20 7 20 15 0 8 -9 15 -20 15 -11
0 -20 -7 -20 -15z"/>
<path d="M2750 4590 c0 -11 6 -20 14 -20 20 0 28 27 10 34 -23 9 -24 8 -24
-14z"/>
<path d="M2443 4593 c-7 -2 -13 -11 -13 -20 0 -20 34 -12 38 10 3 17 -3 20
-25 10z"/>
<path d="M2810 4575 c0 -8 7 -15 15 -15 8 0 15 7 15 15 0 8 -7 15 -15 15 -8 0
-15 -7 -15 -15z"/>
<path d="M2380 4565 c0 -8 7 -15 15 -15 8 0 15 7 15 15 0 8 -7 15 -15 15 -8 0
-15 -7 -15 -15z"/>
<path d="M2862 4564 c1 -9 9 -19 16 -22 9 -3 13 2 10 14 -1 9 -9 19 -16 22 -9
3 -13 -2 -10 -14z"/>
<path d="M2343 4563 c-18 -7 -16 -33 2 -33 8 0 15 9 15 20 0 11 -1 20 -2 19
-2 0 -9 -3 -15 -6z"/>
<path d="M2503 4553 c-7 -2 -13 -11 -13 -19 0 -8 -4 -14 -10 -14 -5 0 -10 7
-10 15 0 9 -6 12 -15 9 -8 -4 -15 -12 -15 -20 0 -8 -4 -14 -10 -14 -5 0 -10 5
-10 10 0 6 -7 10 -15 10 -8 0 -15 -9 -15 -20 0 -11 -4 -20 -10 -20 -5 0 -10 5
-10 10 0 6 -7 10 -15 10 -8 0 -15 -8 -15 -18 0 -11 -23 -38 -50 -61 l-50 -43
6 -51 c3 -29 13 -57 20 -63 8 -6 22 -38 33 -70 l19 -59 -2 84 -1 83 33 3 c17
1 32 -1 32 -5 0 -4 20 -3 45 3 31 7 59 7 90 0 25 -6 45 -6 45 -2 0 5 34 9 76
9 52 0 73 -3 68 -11 -4 -8 1 -9 17 -3 25 8 210 6 219 -3 2 -2 3 -35 1 -74 -1
-38 -1 -69 2 -69 3 0 13 22 22 49 9 27 23 55 31 61 7 7 14 20 14 29 0 9 9 24
20 34 19 16 19 20 6 45 -8 15 -25 38 -39 51 -14 13 -23 29 -21 36 3 7 1 16 -5
20 -6 3 -14 -1 -17 -9 -3 -9 -10 -13 -16 -10 -5 3 -7 12 -4 19 2 7 -2 16 -10
19 -8 3 -14 1 -14 -4 0 -6 -4 -10 -10 -10 -5 0 -10 6 -10 14 0 8 -7 16 -15 20
-8 3 -15 1 -15 -4 0 -6 -7 -10 -16 -10 -8 0 -12 5 -9 10 3 6 -2 13 -11 17 -10
4 -19 2 -22 -5 -5 -17 -22 -15 -22 3 0 8 -9 15 -20 15 -11 0 -20 -4 -20 -10 0
-5 -4 -10 -10 -10 -5 0 -10 7 -10 15 0 8 -9 15 -20 15 -11 0 -20 -7 -20 -15 0
-8 -4 -15 -10 -15 -5 0 -10 7 -10 15 0 22 -50 20 -50 -2 -1 -17 -1 -17 -14 0
-16 21 -46 23 -46 2 0 -8 -4 -15 -10 -15 -5 0 -10 7 -10 15 0 15 -6 17 -27 8z"/>
<path d="M2915 4550 c-7 -12 2 -30 16 -30 12 0 12 27 0 35 -5 3 -12 1 -16 -5z"/>
<path d="M2295 4537 c-4 -10 -5 -21 -1 -24 10 -10 18 4 13 24 -4 17 -4 17 -12
0z"/>
<path d="M2255 4517 c-4 -10 -5 -21 -1 -24 10 -10 18 4 13 24 -4 17 -4 17 -12
0z"/>
<path d="M2960 4521 c0 -6 5 -13 10 -16 6 -3 10 1 10 9 0 9 -4 16 -10 16 -5 0
-10 -4 -10 -9z"/>
<path d="M3000 4501 c0 -6 5 -13 10 -16 6 -3 10 1 10 9 0 9 -4 16 -10 16 -5 0
-10 -4 -10 -9z"/>
<path d="M2300 4475 c0 -8 5 -15 10 -15 6 0 10 7 10 15 0 8 -4 15 -10 15 -5 0
-10 -7 -10 -15z"/>
<path d="M2257 4464 c-9 -9 4 -35 14 -28 5 3 9 12 9 20 0 14 -12 19 -23 8z"/>
<path d="M3000 4445 c0 -8 5 -15 10 -15 6 0 10 7 10 15 0 8 -4 15 -10 15 -5 0
-10 -7 -10 -15z"/>
<path d="M2440 4280 c-11 -11 -20 -26 -20 -32 0 -7 7 -2 16 10 21 30 58 28 83
-4 12 -15 21 -21 21 -15 0 17 -46 61 -65 61 -8 0 -24 -9 -35 -20z"/>
<path d="M2768 4289 c-10 -5 -22 -20 -28 -32 -11 -22 -11 -22 6 1 24 32 69 30
88 -5 11 -20 15 -23 16 -10 0 20 -34 57 -52 57 -7 0 -21 -5 -30 -11z"/>
<path d="M2453 4242 c-6 -4 -16 -20 -22 -34 -9 -24 -7 -30 16 -48 32 -25 38
-25 63 0 24 24 25 38 4 68 -15 22 -39 28 -61 14z m59 -37 c0 -5 -5 -11 -11
-13 -6 -2 -11 4 -11 13 0 9 5 15 11 13 6 -2 11 -8 11 -13z"/>
<path d="M2232 4233 c18 -5 34 -53 21 -62 -5 -3 -1 -14 10 -25 19 -18 19 -17
12 15 -13 59 -24 79 -42 78 -16 -1 -16 -2 -1 -6z"/>
<path d="M2750 4221 c-15 -29 -12 -46 9 -65 41 -37 97 14 66 60 -19 29 -60 32
-75 5z m70 -22 c0 -5 -7 -9 -15 -9 -15 0 -20 12 -9 23 8 8 24 -1 24 -14z"/>
<path d="M2981 4170 c-7 -23 -10 -44 -8 -46 3 -3 7 7 11 21 4 14 14 25 24 25
10 0 13 3 6 8 -6 4 -13 13 -15 21 -3 8 -11 -5 -18 -29z"/>
<path d="M2587 4018 c9 -10 24 -18 33 -18 9 0 24 8 33 18 15 16 13 17 -33 17
-46 0 -48 -1 -33 -17z"/>
<path d="M2530 3950 c31 -24 79 -34 123 -26 17 4 43 15 57 26 29 23 16 26 -20
5 -33 -19 -108 -19 -144 0 -39 21 -46 18 -16 -5z"/>
<path d="M2489 3751 c41 -57 89 -91 130 -91 30 0 48 8 85 41 52 46 60 65 19
43 -67 -34 -158 -29 -218 12 l-37 25 21 -30z"/>
<path d="M2798 3622 c-32 -42 -72 -110 -90 -149 -18 -40 -36 -73 -39 -73 -12
0 -26 68 -17 84 6 11 5 29 -2 51 -9 27 -17 35 -35 35 -30 0 -53 -57 -35 -89 8
-15 7 -29 -3 -53 l-13 -33 -39 70 c-76 138 -136 224 -151 218 -20 -8 -19 -12
31 -99 53 -95 108 -233 138 -352 21 -85 22 -101 22 -639 -1 -304 -4 -555 -7
-559 -4 -3 -125 1 -269 10 -144 9 -262 16 -264 14 -1 -2 -5 -40 -9 -85 -6 -80
-6 -83 16 -88 32 -7 351 -25 442 -25 l75 0 -9 -32 c-5 -17 -20 -42 -32 -56
-45 -47 -67 -52 -236 -52 l-159 0 -7 -362 c-4 -200 -9 -482 -12 -628 l-5 -264
-71 -42 c-109 -65 -158 -109 -158 -144 0 -36 20 -48 98 -61 105 -17 359 23
513 80 l56 21 11 88 c6 48 17 373 23 722 6 349 13 637 15 639 2 2 6 2 8 0 3
-3 11 -300 19 -662 10 -475 17 -661 25 -669 7 -7 12 -27 12 -44 0 -69 10 -78
122 -111 136 -41 185 -51 298 -63 172 -17 272 12 256 74 -7 29 -91 95 -187
148 l-59 33 0 629 0 629 -52 -7 c-29 -3 -101 -9 -160 -13 -88 -5 -115 -3 -151
11 -56 21 -73 40 -82 93 l-6 41 63 6 c35 3 146 11 248 17 102 6 194 12 205 14
11 2 28 4 38 4 15 1 17 11 17 74 0 39 -4 78 -8 84 -7 10 -59 9 -252 -7 -135
-11 -262 -20 -283 -20 l-38 0 6 113 c3 61 10 236 15 387 17 436 37 642 76 778
26 88 95 243 144 323 16 27 30 54 30 59 0 27 -31 2 -82 -68z m362 -1597 c0
-16 -6 -25 -15 -25 -9 0 -15 9 -15 25 0 16 6 25 15 25 9 0 15 -9 15 -25z
m-1100 -5 c0 -11 -4 -20 -10 -20 -5 0 -10 9 -10 20 0 11 5 20 10 20 6 0 10 -9
10 -20z m64 14 c24 -9 20 -44 -4 -44 -15 0 -20 7 -20 25 0 27 1 28 24 19z
m886 -25 c0 -14 -7 -19 -25 -19 -18 0 -25 5 -25 19 0 11 8 21 18 24 24 5 32
-1 32 -24z m80 12 c0 -10 -9 -21 -20 -24 -16 -4 -20 0 -20 19 0 17 6 24 20 24
13 0 20 -7 20 -19z m-860 -17 c0 -21 -4 -25 -22 -22 -15 2 -24 11 -26 26 -3
18 1 22 22 22 21 0 26 -5 26 -26z m690 1 c0 -20 -5 -25 -25 -25 -20 0 -25 5
-25 25 0 20 5 25 25 25 20 0 25 -5 25 -25z m-600 -11 c0 -20 -4 -25 -16 -20
-9 3 -20 6 -25 6 -5 0 -9 9 -9 20 0 15 7 20 25 20 20 0 25 -5 25 -26z m85 1
c0 -13 -8 -21 -22 -23 -19 -3 -23 1 -23 23 0 22 4 26 23 23 14 -2 22 -10 22
-23z m425 5 c0 -13 -7 -20 -20 -20 -13 0 -20 7 -20 20 0 13 7 20 20 20 13 0
20 -7 20 -20z m-330 -10 c0 -15 -7 -20 -25 -20 -18 0 -25 5 -25 20 0 15 7 20
25 20 18 0 25 -5 25 -20z m60 0 c0 -11 -4 -20 -10 -20 -5 0 -10 9 -10 20 0 11
5 20 10 20 6 0 10 -9 10 -20z m90 0 c0 -13 -7 -20 -20 -20 -13 0 -20 7 -20 20
0 13 7 20 20 20 13 0 20 -7 20 -20z m98 3 c-2 -11 -14 -19 -31 -21 -22 -3 -27
1 -27 17 0 17 6 21 31 21 24 0 30 -4 27 -17z m-688 -64 c0 -11 -7 -19 -16 -19
-11 0 -14 5 -10 16 3 9 6 20 6 25 0 6 5 7 10 4 6 -3 10 -15 10 -26z m1030 6
c0 -18 -5 -25 -20 -25 -20 0 -28 28 -13 43 15 16 33 6 33 -18z m80 5 c0 -13
-7 -20 -20 -20 -13 0 -20 7 -20 20 0 13 7 20 20 20 13 0 20 -7 20 -20z m-1030
-15 c0 -18 -5 -25 -20 -25 -15 0 -20 7 -20 25 0 18 5 25 20 25 15 0 20 -7 20
-25z m870 5 c0 -24 -26 -38 -42 -22 -16 16 -2 42 22 42 13 0 20 -7 20 -20z
m-780 -15 c0 -20 -5 -25 -25 -25 -20 0 -25 5 -25 25 0 20 5 25 25 25 20 0 25
-5 25 -25z m74 19 c27 -10 20 -44 -9 -44 -20 0 -25 5 -25 25 0 26 7 29 34 19z
m526 -19 c0 -18 -5 -25 -20 -25 -15 0 -20 7 -20 25 0 18 5 25 20 25 15 0 20
-7 20 -25z m90 5 c0 -15 -7 -20 -25 -20 -18 0 -25 5 -25 20 0 15 7 20 25 20
18 0 25 -5 25 -20z m-517 -11 c3 -12 0 -22 -8 -25 -20 -8 -35 4 -35 27 0 26
36 25 43 -2z m97 -4 c0 -20 -5 -25 -24 -25 -14 0 -28 5 -31 10 -12 19 4 40 30
40 20 0 25 -5 25 -25z m47 -12 c-3 -10 -5 -4 -5 12 0 17 2 24 5 18 2 -7 2 -21
0 -30z m103 12 c0 -30 -25 -34 -33 -6 -5 22 0 31 20 31 7 0 13 -11 13 -25z
m100 5 c0 -16 -7 -20 -30 -20 -23 0 -30 4 -30 20 0 16 7 20 30 20 23 0 30 -4
30 -20z"/>
<path d="M1636 3291 c-34 -35 -37 -41 -26 -62 14 -26 100 -119 111 -119 4 0
12 12 18 28 6 15 19 47 30 72 l19 45 -36 38 c-20 20 -45 37 -57 37 -12 0 -38
-18 -59 -39z"/>
<path d="M2873 3143 l-153 -4 0 -53 c0 -52 1 -54 33 -60 37 -8 346 4 351 13 2
3 7 30 11 59 l7 52 -49 -2 c-26 -1 -117 -4 -200 -5z m-73 -43 c0 -11 -7 -20
-15 -20 -8 0 -15 -7 -15 -15 0 -8 -4 -15 -10 -15 -5 0 -10 16 -10 35 0 31 3
35 25 35 18 0 25 -5 25 -20z m75 -15 c0 -25 -4 -30 -24 -30 -32 0 -49 28 -31
50 7 9 23 15 34 13 16 -2 21 -10 21 -33z m35 6 c0 -20 6 -31 18 -34 10 -3 6
-5 -10 -6 -25 -1 -28 2 -28 34 0 19 5 35 10 35 6 0 10 -13 10 -29z m52 -6 c-2
-19 -6 -35 -8 -35 -2 0 -4 16 -4 35 0 19 4 35 8 35 4 0 6 -16 4 -35z m51 25
c-31 -13 -27 -39 7 -53 9 -4 4 -6 -10 -4 -42 4 -40 68 2 66 l23 0 -22 -9z m65
3 c-10 -2 -18 -9 -18 -14 0 -5 8 -10 18 -10 16 -1 16 -2 0 -6 -10 -2 -18 -8
-18 -13 0 -5 8 -11 18 -13 13 -4 12 -5 -5 -6 -27 -1 -37 13 -29 45 5 17 13 24
29 23 17 -1 18 -2 5 -6z"/>
<path d="M2770 3100 c0 -5 5 -10 10 -10 6 0 10 5 10 10 0 6 -4 10 -10 10 -5 0
-10 -4 -10 -10z"/>
<path d="M2833 3094 c-8 -22 15 -44 26 -25 10 16 4 41 -10 41 -5 0 -12 -7 -16
-16z"/>
</g>
</svg>
